<?xml version="1.0" encoding="UTF-8"?>
<svg width="41px" height="41px" viewBox="0 0 41 41" version="1.1" xmlns="http://www.w3.org/2000/svg" xmlns:xlink="http://www.w3.org/1999/xlink">
    <!-- Generator: sketchtool 49.2 (51160) - http://www.bohemiancoding.com/sketch -->
    <title>7EEF6994-8796-44D6-B515-252B76D6DA15</title>
    <desc>Created with sketchtool.</desc>
    <defs></defs>
    <g id="Page-1" stroke="none" stroke-width="1" fill="none" fill-rule="evenodd">
        <g id="Visuals" transform="translate(-350.000000, -14043.000000)" fill="#FFFFFF">
            <g id="Question-Mark" transform="translate(350.000000, 14043.000000)">
                <path d="M20,28 C19.44725,28 19,28.447265 19,29 L19,31 C19,31.55275 19.447265,32 20,32 C20.552735,32 21,31.552735 21,31 L21,29 C21,28.44725 20.552735,28 20,28 Z" id="Fill-1"></path>
                <path d="M15.5270952,12.6117024 C15.6109842,12.522093 15.69869,12.4248546 15.7921163,12.3199874 C16.6271985,11.3895802 17.7692925,10.114041 20.2555032,10.114041 C23.0182199,10.114041 24.7265532,11.9196029 24.7265532,13.5917195 C24.7265532,15.2676433 23.9105068,16.0169671 22.0649211,17.5536862 L21.9352732,17.6623655 C19.8837601,19.3764095 19.0238827,20.690069 19.0238827,24.3927107 C19.0238827,24.9323 19.4604986,25.3689012 20.0000732,25.3689012 C20.5396479,25.3689012 20.9762637,24.9322854 20.9762637,24.3927107 C20.9762637,21.2830071 21.5501661,20.5279726 23.1879208,19.1627702 L23.3175687,19.054091 C25.1231306,17.551685 26.6808377,16.253254 26.6808377,13.5918171 C26.6808377,10.9797267 24.225133,8.16175762 20.2575044,8.16175762 C16.8980425,8.16175762 15.2335401,10.0188136 14.3393496,11.0159921 C14.2554558,11.1094185 14.1753789,11.1990279 14.1010225,11.2791048 C13.7330426,11.6737737 13.7540161,12.2915119 14.1486899,12.6594869 C14.5414552,13.0274668 15.161097,13.0064933 15.5271685,12.6118195 L15.5270952,12.6117024 Z" id="Fill-2"></path>
                <path d="M20.5,41 C31.6119762,41 41,31.6119762 41,20.5 C41,9.38802381 31.6119762,0 20.5,0 C9.38802381,0 0,9.38802381 0,20.5 C0,31.6119762 9.38802381,41 20.5,41 Z M20.5,1.95238095 C30.5537857,1.95238095 39.047619,10.4462143 39.047619,20.5 C39.047619,30.5537857 30.5537857,39.047619 20.5,39.047619 C10.4462143,39.047619 1.95238095,30.5537857 1.95238095,20.5 C1.95238095,10.4462143 10.4462143,1.95238095 20.5,1.95238095 Z" id="Fill-3"></path>
            </g>
        </g>
    </g>
</svg>