<?xml version="1.0" encoding="UTF-8" standalone="no"?>
<svg width="72px" height="73px" viewBox="0 0 72 73" version="1.1" xmlns="http://www.w3.org/2000/svg" xmlns:xlink="http://www.w3.org/1999/xlink">
    <!-- Generator: Sketch 41 (35326) - http://www.bohemiancoding.com/sketch -->
    <title>icon_counterargument</title>
    <desc>Created with Sketch.</desc>
    <defs></defs>
    <g id="UI-Library_02" stroke="none" stroke-width="1" fill="none" fill-rule="evenodd">
        <g id="Icons" transform="translate(-623.000000, -744.000000)">
            <g id="icon_counterargument" transform="translate(623.000000, 744.000000)">
                <path d="M36.132586,72.06925 C16.3740612,72.06925 0.297341685,55.993336 0.297341685,36.235375 C0.297341685,16.477414 16.3740612,0.4015 36.132586,0.4015 C55.887388,0.4015 71.9603848,16.477414 71.9603848,36.235375 C71.9603848,55.993336 55.887388,72.06925 36.132586,72.06925" id="Fill-13" fill="#3AAE2A"></path>
                <path d="M23.0956824,25.066375 L19.3729269,25.066375 C18.3491692,25.066375 17.5115492,25.90405 17.5115492,26.927875 L17.5115492,54.850375 L24.9570601,47.404375 L45.4322153,47.404375 C46.4559731,47.404375 47.2935931,46.5667 47.2935931,45.542875 L47.2935931,41.819875 L23.0956824,41.819875 L23.0956824,25.066375 Z M51.0163485,36.5536915 L48.8348138,34.373875 L30.5411934,34.373875 L30.5411934,21.343375 L51.0163485,21.343375 L51.0163485,36.5536915 Z M52.8777263,17.620375 L28.6798156,17.620375 C27.6560579,17.620375 26.8184379,18.45805 26.8184379,19.481875 L26.8184379,36.235375 C26.8184379,37.2592 27.6560579,38.096875 28.6798156,38.096875 L47.2935931,38.096875 L54.739104,45.542875 L54.739104,19.481875 C54.739104,18.45805 53.901484,17.620375 52.8777263,17.620375 L52.8777263,17.620375 Z" id="Fill-15" fill="#FFFFFF"></path>
            </g>
        </g>
    </g>
</svg>