<?xml version="1.0" encoding="UTF-8" standalone="no"?>
<svg width="37px" height="28px" viewBox="0 0 37 28" version="1.1" xmlns="http://www.w3.org/2000/svg" xmlns:xlink="http://www.w3.org/1999/xlink">
    <!-- Generator: Sketch 41 (35326) - http://www.bohemiancoding.com/sketch -->
    <title>Group 20</title>
    <desc>Created with Sketch.</desc>
    <defs></defs>
    <g id="UI-Library_02" stroke="none" stroke-width="1" fill="none" fill-rule="evenodd">
        <g id="Icons" transform="translate(-41.000000, -494.000000)" fill="#FFFFFF">
            <g id="icon_ela" transform="translate(23.000000, 472.000000)">
                <g id="Group-20" transform="translate(18.192719, 22.129361)">
                    <path d="M32.5746263,22.4895329 C30.7830219,21.932295 28.8285443,21.6934787 26.8740667,21.6934787 C24.6931955,21.6934787 21.767994,22.3398747 19.5447758,23.2728502 L19.5447758,4.96360478 C21.767994,4.03062931 24.6931955,3.38423335 26.8740667,3.38423335 C28.8285443,3.38423335 30.7830219,3.62304959 32.5746263,4.18028749 L32.5746263,22.4895329 Z M16.2873132,23.2728502 C14.0640949,22.3398747 11.1388935,21.6934787 8.95802224,21.6934787 C7.00354466,21.6934787 5.04906708,21.932295 3.25746263,22.4895329 L3.25746263,4.18028749 C5.04906708,3.62304959 7.00354466,3.38423335 8.95802224,3.38423335 C11.1388935,3.38423335 14.0640949,4.03062931 16.2873132,4.96360478 L16.2873132,23.2728502 Z M17.9160445,2.5881792 C15.5543841,0.836860075 12.1340483,0.200016757 8.95802224,0.200016757 C5.78199617,0.200016757 2.36166041,0.836860075 0,2.5881792 L0,25.9125657 C0,26.3105928 0.407182829,26.7086199 0.814365658,26.7086199 C0.978867521,26.7086199 1.05867536,26.6290145 1.22154849,26.6290145 C3.42196449,25.5941441 6.59636183,24.8776953 8.95802224,24.8776953 C12.1340483,24.8776953 15.5543841,25.5145386 17.9160445,27.2658578 C20.2777049,25.5145386 23.6980406,24.8776953 26.8740667,24.8776953 C29.2357271,24.8776953 32.4117532,25.5941441 34.6105405,26.6290145 C34.7734136,26.6290145 34.8548502,26.7086199 35.0177233,26.7086199 C35.4249061,26.7086199 35.8320889,26.3105928 35.8320889,25.9125657 L35.8320889,2.5881792 C33.4704285,0.836860075 30.0500928,0.200016757 26.8740667,0.200016757 C23.6980406,0.200016757 20.2777049,0.836860075 17.9160445,2.5881792 Z" id="Fill-20"></path>
                </g>
            </g>
        </g>
    </g>
</svg>