<?xml version="1.0" encoding="UTF-8" standalone="no"?>
<svg width="73px" height="73px" viewBox="0 0 73 73" version="1.1" xmlns="http://www.w3.org/2000/svg" xmlns:xlink="http://www.w3.org/1999/xlink">
    <!-- Generator: Sketch 41 (35326) - http://www.bohemiancoding.com/sketch -->
    <title>icon_evidence</title>
    <desc>Created with Sketch.</desc>
    <defs></defs>
    <g id="UI-Library_02" stroke="none" stroke-width="1" fill="none" fill-rule="evenodd">
        <g id="Icons" transform="translate(-384.000000, -744.000000)">
            <g id="icon_evidence" transform="translate(384.000000, 744.000000)">
                <path d="M0.364227108,36.235375 C0.364227108,16.477414 16.4390853,0.4015 36.19761,0.4015 C55.9542734,0.4015 72.0272702,16.477414 72.0272702,36.235375 C72.0272702,55.993336 55.9542734,72.06925 36.19761,72.06925 C16.4390853,72.06925 0.364227108,55.993336 0.364227108,36.235375 Z" id="Fill-5" fill="#FEB501"></path>
                <path d="M32.4694565,39.9775484 C27.834626,39.9775484 24.0932567,36.2359334 24.0932567,31.6007984 C24.0932567,26.9656634 27.834626,23.2240484 32.4694565,23.2240484 C37.1024257,23.2240484 40.8456564,26.9656634 40.8456564,31.6007984 C40.8456564,36.2359334 37.1024257,39.9775484 32.4694565,39.9775484 L32.4694565,39.9775484 Z M42.267749,38.6093459 C43.6935643,36.6212639 44.5684119,34.2180674 44.5684119,31.6007984 C44.5684119,24.9180134 39.1518026,19.5010484 32.4694565,19.5010484 C25.7852491,19.5010484 20.3705012,24.9180134 20.3705012,31.6007984 C20.3705012,38.2835834 25.7852491,43.7005484 32.4694565,43.7005484 C35.0846923,43.7005484 37.4895923,42.8275049 39.4775437,41.3997344 L50.1525451,52.0586834 L52.9241365,49.2850484 L42.267749,38.6093459 Z" id="Fill-7" fill="#FFFFFF"></path>
            </g>
        </g>
    </g>
</svg>