<?xml version="1.0" encoding="UTF-8" standalone="no"?>
<svg width="52px" height="50px" viewBox="0 0 52 50" version="1.1" xmlns="http://www.w3.org/2000/svg" xmlns:xlink="http://www.w3.org/1999/xlink">
    <!-- Generator: Sketch 41 (35326) - http://www.bohemiancoding.com/sketch -->
    <title>Circa set</title>
    <desc>Created with Sketch.</desc>
    <defs></defs>
    <g id="UI-Library_02" stroke="none" stroke-width="1" fill="none" fill-rule="evenodd">
        <g id="Icons" transform="translate(-396.000000, -630.000000)" fill="#FFFFFF">
            <g id="Circa-set" transform="translate(396.000000, 630.000000)">
                <path d="M26.0921886,0.377487104 C21.4309465,0.377487104 17.6400422,4.17593957 17.6400422,8.84421518 C17.6400422,13.5147384 21.4309465,17.3131909 26.0921886,17.3131909 C30.7511875,17.3131909 34.5398487,13.5147384 34.5398487,8.84421518 C34.5398487,4.17593957 30.7511875,0.377487104 26.0921886,0.377487104" id="Fill-12"></path>
                <path d="M36.6416696,32.9205601 C31.9826707,32.9205601 28.1917664,36.7190125 28.1917664,41.3872881 C28.1917664,46.0555637 31.9826707,49.8540162 36.6416696,49.8540162 C41.3029117,49.8540162 45.093816,46.0555637 45.093816,41.3872881 C45.093816,36.7190125 41.3029117,32.9205601 36.6416696,32.9205601" id="Fill-13"></path>
                <path d="M0.554055243,21.2667281 C0.554055243,25.9372513 4.34495954,29.7357038 9.00620162,29.7357038 C13.6652006,29.7357038 17.4561049,25.9372513 17.4561049,21.2667281 C17.4561049,16.5984525 13.6652006,12.8 9.00620162,12.8 C4.34495954,12.8 0.554055243,16.5984525 0.554055243,21.2667281 Z" id="Fill-14"></path>
                <path d="M43.1602305,12.8202284 C38.5012315,12.8202284 34.7103272,16.6186809 34.7103272,21.2869565 C34.7103272,25.9574797 38.5012315,29.7536846 43.1602305,29.7536846 C47.8214726,29.7536846 51.6101337,25.9574797 51.6101337,21.2869565 C51.6101337,16.6186809 47.8214726,12.8202284 43.1602305,12.8202284" id="Fill-15"></path>
                <path d="M15.5157899,32.9205601 C10.856791,32.9205601 7.0658867,36.7190125 7.0658867,41.3872881 C7.0658867,46.0555637 10.856791,49.8540162 15.5157899,49.8540162 C20.177032,49.8540162 23.9679363,46.0555637 23.9679363,41.3872881 C23.9679363,36.7190125 20.177032,32.9205601 15.5157899,32.9205601" id="Fill-16"></path>
            </g>
        </g>
    </g>
</svg>