<?xml version="1.0" encoding="UTF-8" standalone="no"?>
<svg width="31px" height="29px" viewBox="0 0 31 29" version="1.1" xmlns="http://www.w3.org/2000/svg" xmlns:xlink="http://www.w3.org/1999/xlink">
    <!-- Generator: Sketch 41 (35326) - http://www.bohemiancoding.com/sketch -->
    <title>Group 6</title>
    <desc>Created with Sketch.</desc>
    <defs></defs>
    <g id="UI-Library_02" stroke="none" stroke-width="1" fill="none" fill-rule="evenodd">
        <g id="Icons" transform="translate(-284.000000, -493.000000)" fill="#AAB3BA">
            <g id="icon_math" transform="translate(263.000000, 472.000000)">
                <g id="Group-6" transform="translate(21.224839, 21.526488)">
                    <polygon id="Fill-1" points="12.6610341 4.89135349 7.98597195 4.89135349 7.98597195 0.321413014 4.86926388 0.321413014 4.86926388 4.89135349 0.194201767 4.89135349 0.194201767 7.93798047 4.86926388 7.93798047 4.86926388 12.507921 7.98597195 12.507921 7.98597195 7.93798047 12.6610341 7.93798047"></polygon>
                    <polygon id="Fill-2" points="17.3915736 7.93828514 29.8584059 7.93828514 29.8584059 4.89165815 17.3915736 4.89165815"></polygon>
                    <polygon id="Fill-3" points="3.122349 27.7410559 6.42761791 24.510108 9.73288682 27.7410559 11.9363994 25.5870906 8.63113052 22.3546194 11.9363994 19.1236714 9.73288682 16.9697062 6.42761791 20.2006541 3.122349 16.9697062 0.918836394 19.1236714 4.22410531 22.3546194 0.918836394 25.5870906"></polygon>
                    <polygon id="Fill-4" points="17.3915736 23.1714201 29.8584059 23.1714201 29.8584059 20.1247931 17.3915736 20.1247931"></polygon>
                    <polygon id="Fill-5" points="22.0245601 27.7413605 25.2254193 27.7413605 25.2254193 25.4563903 22.0245601 25.4563903"></polygon>
                    <polygon id="Fill-6" points="22.0245601 17.8398228 25.2254193 17.8398228 25.2254193 15.5548526 22.0245601 15.5548526"></polygon>
                </g>
            </g>
        </g>
    </g>
</svg>