<?xml version="1.0" encoding="UTF-8" standalone="no"?>
<svg width="73px" height="73px" viewBox="0 0 73 73" version="1.1" xmlns="http://www.w3.org/2000/svg" xmlns:xlink="http://www.w3.org/1999/xlink">
    <!-- Generator: Sketch 41 (35326) - http://www.bohemiancoding.com/sketch -->
    <title>icon_reasoning</title>
    <desc>Created with Sketch.</desc>
    <defs></defs>
    <g id="UI-Library_02" stroke="none" stroke-width="1" fill="none" fill-rule="evenodd">
        <g id="Icons" transform="translate(-502.000000, -744.000000)">
            <g id="icon_reasoning" transform="translate(502.000000, 744.000000)">
                <path d="M36.5618371,72.06925 C16.8033124,72.06925 0.726592838,55.993336 0.726592838,36.235375 C0.726592838,16.477414 16.8033124,0.4015 36.5618371,0.4015 C56.3166391,0.4015 72.3896359,16.477414 72.3896359,36.235375 C72.3896359,55.993336 56.3166391,72.06925 36.5618371,72.06925" id="Fill-9" fill="#FE6B00"></path>
                <path d="M35.1585444,21.343375 C30.2761506,21.343375 26.3170002,25.3027855 26.3170002,30.1855 C26.3170002,30.33442 26.3095547,30.5038165 26.3170002,30.650875 C26.3170002,33.2216065 28.4017432,35.304625 30.9704445,35.304625 C32.8318223,35.304625 34.4363299,34.213786 35.180881,32.635234 L35.1790196,32.6333725 C35.4787014,32.0116315 36.117154,31.581625 36.8542596,31.581625 L42.138711,31.581625 C43.1680529,31.581625 44.0000887,30.747673 44.0000887,29.720125 C43.7394958,25.070098 39.8734143,21.343375 35.1585444,21.343375 L35.1585444,21.343375 Z M46.7940167,39.0294865 L46.7940167,42.7524865 L46.7940167,47.4062365 L39.3485057,47.4062365 L39.3485057,52.0599865 L28.1802393,52.0599865 L28.1802393,39.615859 L27.0541058,38.5194355 C24.2974053,35.8388755 23.068896,32.095399 23.6794279,28.253263 C24.4705135,23.294227 28.6772271,19.251049 33.6806105,18.6423385 C34.1738756,18.5827705 34.6708635,18.551125 35.1604058,18.551125 C41.4909515,18.551125 46.5929879,23.5157455 46.7716802,29.790862 L46.7716802,32.5179595 L50.2021994,39.0294865 L46.7940167,39.0294865 Z M54.9878015,40.1575555 L50.5167722,31.5834865 L50.4944357,29.7443245 C50.2580407,21.469957 43.4919326,14.828125 35.1604058,14.828125 C34.5238146,14.828125 33.8797779,14.8672165 33.2301571,14.9453995 C26.5589793,15.758875 21.0604694,21.030643 20.0032069,27.6668905 C19.1581414,32.974027 21.0418557,37.8641875 24.4574838,41.1888265 L24.4574838,55.7829865 L43.0712612,55.7829865 L43.0712612,51.1292365 L48.6553945,51.1292365 C49.682875,51.1292365 50.5167722,50.297146 50.5167722,49.2677365 L50.5167722,42.7524865 L53.2771954,42.7524865 C54.6136646,42.7524865 55.5164328,41.388007 54.9878015,40.1575555 L54.9878015,40.1575555 Z" id="Fill-11" fill="#FFFFFF"></path>
            </g>
        </g>
    </g>
</svg>