<?xml version="1.0" encoding="UTF-8"?>
<svg width="79px" height="79px" viewBox="0 0 79 79" version="1.1" xmlns="http://www.w3.org/2000/svg" xmlns:xlink="http://www.w3.org/1999/xlink">
    <!-- Generator: sketchtool 49.2 (51160) - http://www.bohemiancoding.com/sketch -->
    <title>B6E562D5-2C57-460E-8A21-7963647347AC</title>
    <desc>Created with sketchtool.</desc>
    <defs></defs>
    <g id="Page-1" stroke="none" stroke-width="1" fill="none" fill-rule="evenodd">
        <g id="Voice" transform="translate(-343.000000, -2660.000000)" fill="#307FE2">
            <path d="M346,2677.28896 L346,2721.71104 C346,2729.60242 352.397418,2736 360.288957,2736 L404.711043,2736 C412.602423,2736 419,2729.60258 419,2721.71104 L419,2677.28896 C419,2669.39758 412.602582,2663 404.711043,2663 L360.288957,2663 C352.397577,2663 346,2669.39742 346,2677.28896 Z M343,2677.38632 C343,2667.78308 350.782764,2660 360.38632,2660 L404.61368,2660 C414.21692,2660 422,2667.78276 422,2677.38632 L422,2721.61368 C422,2731.21692 414.217236,2739 404.61368,2739 L360.38632,2739 C350.783079,2739 343,2731.21724 343,2721.61368 L343,2677.38632 Z" id="icon-apps"></path>
        </g>
    </g>
</svg>