<?xml version="1.0" encoding="UTF-8"?>
<svg width="77px" height="76px" viewBox="0 0 77 76" version="1.1" xmlns="http://www.w3.org/2000/svg" xmlns:xlink="http://www.w3.org/1999/xlink">
    <!-- Generator: sketchtool 49.2 (51160) - http://www.bohemiancoding.com/sketch -->
    <title>1EBD941C-976C-408F-B466-577D2EFB5B7C</title>
    <desc>Created with sketchtool.</desc>
    <defs></defs>
    <g id="Page-1" stroke="none" stroke-width="1" fill="none" fill-rule="evenodd">
        <g id="Voice" transform="translate(-506.000000, -2662.000000)" fill="#307FE2">
            <g id="icon-blogs" transform="translate(506.000000, 2662.000000)">
                <path d="M8.73566994,0.00695342434 C8.54302543,0.0496680267 8.37004695,0.146737632 8.23244517,0.28653178 L0.306655108,8.11472573 C0.11008545,8.3011113 0,8.55738897 0,8.82920375 C0,9.09713176 0.11008545,9.35340944 0.306655108,9.54368177 L60.0333961,68.5031534 C60.1356112,68.6507112 60.2771482,68.7671947 60.4422663,68.8448603 C60.4855134,68.868161 60.5248253,68.8875749 60.5680725,68.9031021 L60.599524,68.9031021 C60.61918,68.9147524 60.6427711,68.9264028 60.6624271,68.9341664 L75.5387576,75.892561 C75.9279718,76.0867101 76.399745,76.0129313 76.7064404,75.7100622 C77.0130955,75.4071831 77.0877942,74.9412192 76.8912144,74.556758 L69.7202615,59.7075438 L69.7202615,59.6764796 C69.7124012,59.6570657 69.7006056,59.6376517 69.68881,59.6182378 L69.6573584,59.6182378 C69.6494981,59.5949371 69.6377025,59.5755232 69.6259069,59.5561093 C69.6180465,59.5444589 69.6062509,59.5328086 69.5944553,59.525045 C69.586595,59.5017443 69.5747994,59.4823304 69.5630038,59.4629165 C69.5551434,59.4512662 69.5433478,59.4435026 69.5315522,59.4318522 L69.5001007,59.4318522 L69.4686491,59.3697237 C69.4489932,59.3503098 69.4293372,59.3270091 69.4057461,59.3075952 L9.64780509,0.281521736 L9.64780509,0.285408496 C9.45516058,0.0990229257 9.19568783,-0.00193343965 8.92441948,0.00583014064 C8.86151639,-0.00194338021 8.79861329,-0.00194338021 8.7357102,0.00583014064 L8.73566994,0.00695342434 Z M8.92437923,2.39885187 L67.360852,60.1157531 L60.8503312,66.546105 L2.44505843,8.82920375 L8.92437923,2.39885187 Z M68.4941141,61.824536 L73.8408773,72.9142289 L62.5807199,67.6644184 L68.4941141,61.824536 Z" id="blogs"></path>
                <path d="M27.052915,53.0025316 C26.4780748,52.9905836 25.9032548,53.0224414 25.320462,53.066247 C22.2061186,53.305185 19.0050921,54.2768403 16.3749648,55.9971571 C13.7448374,57.7174739 11.6580923,60.2302069 11.0202658,63.4199546 L11.0202658,63.4159686 C10.9100169,63.9734736 11.2604385,64.5150344 11.8077215,64.6265619 C12.3550045,64.7420448 12.8943852,64.3876239 13.0046542,63.8301189 C13.5125669,61.2735497 15.1504648,59.2147765 17.4458542,57.7134369 C19.7412436,56.2120973 22.6509744,55.3161054 25.4464045,55.101104 C28.2418346,54.8860618 30.9231654,55.3758755 32.7225459,56.5028436 C34.5139636,57.6258664 35.514045,59.2426074 35.3054007,61.8231336 C34.8211142,65.0765968 35.3526531,67.7167606 36.7858679,69.7238479 C38.2269245,71.7428626 40.4869351,73.052954 43.2429546,73.9290667 C48.7591261,75.6772144 56.4369329,75.812699 64.976229,75.9997675 C65.5353251,76.0117154 65.9920343,75.5617213 65.9998962,74.9962442 C66.0077683,74.4347532 65.5667931,73.9728214 65.007697,73.9608939 C56.4676954,73.7737336 48.8604446,73.5786012 43.8408867,71.9857153 C41.3288903,71.1892723 39.5137859,70.078228 38.4231912,68.5450817 C37.3325965,67.0119353 36.8798284,64.9929206 37.3207028,62.0779138 L37.3207028,62.0181844 C37.5923738,58.7607454 36.0725666,56.2320071 33.7614533,54.7864313 C31.8833524,53.6117225 29.5406905,53.0422594 27.0523808,53.002399 L27.052915,53.0025316 Z" id="Fill-2"></path>
            </g>
        </g>
    </g>
</svg>