<?xml version="1.0" encoding="UTF-8"?>
<svg width="40px" height="75px" viewBox="0 0 40 75" version="1.1" xmlns="http://www.w3.org/2000/svg" xmlns:xlink="http://www.w3.org/1999/xlink">
    <!-- Generator: sketchtool 49.2 (51160) - http://www.bohemiancoding.com/sketch -->
    <title>C0AC69C6-9294-4505-A7EA-9F8238E29866</title>
    <desc>Created with sketchtool.</desc>
    <defs></defs>
    <g id="Page-1" stroke="none" stroke-width="1" fill="none" fill-rule="evenodd">
        <g id="Voice" transform="translate(-360.000000, -2850.000000)" fill="#307FE2">
            <path d="M399.922162,2853.62333 C399.828559,2853.05657 399.438542,2852.58359 398.900368,2852.38426 C395.628211,2851.18823 391.30291,2850 386.661605,2850 C383.022824,2850 379.165586,2850.74265 375.577027,2852.83764 C373.771265,2853.88909 372.347702,2855.21801 371.2674,2856.71503 C369.637163,2858.96251 368.76743,2861.55 368.279896,2864.17661 C367.885985,2866.29901 367.737778,2868.46444 367.655877,2870.56333 C366.719848,2870.58679 365.662909,2870.59069 364.695729,2870.59069 C363.853304,2870.59069 363.081067,2870.58679 362.51945,2870.57897 C362.238641,2870.57506 362.012437,2870.57506 361.856432,2870.57115 C361.700427,2870.56724 361.614622,2870.56724 361.614622,2870.56724 C361.18951,2870.55942 360.7761,2870.7275 360.471918,2871.02847 C360.17161,2871.32943 360,2871.74375 360,2872.16977 L360.062402,2882.73526 C360.07021,2883.62252 360.783928,2884.39648 361.657595,2884.39648 L362.765254,2884.39648 C364.317514,2884.39648 367.215259,2884.33003 369.442259,2884.37303 C369.769864,2891.63138 369.847872,2902.50917 369.847872,2910.94835 C369.847872,2914.50524 369.832276,2917.60864 369.820575,2919.84051 C369.812777,2920.9545 369.804969,2921.83784 369.801075,2922.45542 C369.797171,2923.06908 369.793277,2923.39741 369.793277,2923.39741 C369.789374,2923.82345 369.953186,2924.22995 370.257388,2924.53481 C370.557696,2924.83577 370.967212,2925.00385 371.392304,2924.99993 L385.503125,2924.92958 C385.928237,2924.92567 386.326052,2924.7576 386.622466,2924.45273 C386.922774,2924.15176 387.082683,2923.74917 387.078779,2923.31923 C387.078779,2923.31923 387.004675,2914.62249 386.91887,2905.24213 C386.844767,2897.17467 386.762865,2888.61491 386.716069,2884.62746 C387.585792,2884.61182 388.599808,2884.60792 389.586557,2884.60792 C390.740943,2884.60792 391.860284,2884.61573 392.694972,2884.62355 C393.108382,2884.62746 393.455496,2884.63136 393.693402,2884.63528 C393.935212,2884.63919 394.067814,2884.63919 394.067814,2884.63919 C394.492926,2884.647 394.902442,2884.47893 395.20273,2884.18188 C395.506942,2883.88482 395.674648,2883.47833 395.678542,2883.05228 L395.698042,2873.26507 C395.698042,2872.83903 395.534239,2872.29573 395.230027,2871.99479 C394.929719,2871.69383 394.528011,2871.38895 394.102899,2871.38895 L393.576386,2871.38895 C393.23708,2871.38895 392.757364,2871.53357 392.184075,2871.53357 C390.413458,2871.53357 387.737963,2871.59611 385.616298,2871.56093 C385.655296,2870.47436 385.752803,2869.55189 385.912712,2868.73499 C386.064813,2867.93762 386.279325,2867.2927 386.528933,2866.76108 C386.716139,2866.36239 386.926748,2866.0497 387.149048,2865.78392 C387.488355,2865.38914 387.854969,2865.12335 388.330791,2864.92401 C388.802709,2864.72858 389.395518,2864.61132 390.156022,2864.61132 C391.505501,2864.6074 393.361883,2865.00609 395.68643,2865.90901 C395.702025,2865.91683 395.721525,2865.91683 395.741034,2865.92464 C395.760533,2865.93247 395.776129,2865.94028 395.795628,2865.9481 C395.830733,2865.95982 395.861934,2865.95982 395.897029,2865.96764 C395.951633,2865.97937 396.002333,2865.99109 396.056938,2865.99891 C396.107638,2866.00673 396.158338,2866.00673 396.209038,2866.01064 C396.263643,2866.01064 396.314343,2866.01455 396.365043,2866.01064 C396.415744,2866.00673 396.466444,2865.99891 396.517144,2865.99109 C396.567844,2865.98328 396.618545,2865.97155 396.669245,2865.95982 C396.716052,2865.9481 396.766752,2865.92856 396.809644,2865.91293 C396.860345,2865.89729 396.907151,2865.87774 396.953948,2865.85429 C397.000754,2865.83084 397.039753,2865.80739 397.082655,2865.78002 C397.125558,2865.75267 397.172364,2865.72531 397.211363,2865.69404 C397.250372,2865.66667 397.285467,2865.6315 397.324465,2865.59632 C397.363474,2865.56114 397.402473,2865.52597 397.437568,2865.48687 C397.472672,2865.44779 397.499969,2865.40871 397.53117,2865.36961 C397.562371,2865.32662 397.593572,2865.28362 397.620879,2865.23672 C397.648176,2865.19372 397.67158,2865.14291 397.691079,2865.09601 C397.706675,2865.06474 397.726174,2865.03348 397.737875,2865.00221 C397.745683,2864.98266 397.749577,2864.96702 397.753481,2864.94358 C397.757375,2864.92794 397.769076,2864.91231 397.77298,2864.89276 C398.092788,2863.83351 398.642703,2862.05902 399.114672,2860.18677 C399.348684,2859.24869 399.56708,2858.2833 399.730893,2857.35303 C399.890802,2856.42277 400,2855.53551 400,2854.7069 C400,2854.33558 399.976597,2853.97989 399.921993,2853.62424 L399.922162,2853.62333 Z M386.611084,2862.22241 C385.827156,2862.62891 385.140695,2863.20348 384.590859,2863.89534 C383.764039,2864.93507 383.233593,2866.21316 382.902114,2867.66325 C382.566701,2869.11724 382.426301,2870.76676 382.426301,2872.6272 C382.426301,2872.81873 382.430205,2873.01025 382.430205,2873.20568 C382.445801,2874.05386 383.12053,2874.51118 383.96689,2874.53849 C386.225041,2874.61276 389.92233,2874.38996 392.184474,2874.38996 L392.523781,2874.38996 L392.512079,2881.20665 C391.700854,2881.19884 390.663385,2881.31219 389.590871,2881.31219 C387.902125,2881.31219 386.150977,2881.38645 385.031637,2881.44117 C384.177509,2881.48417 383.510627,2882.2229 383.522309,2883.08278 C383.565211,2885.79925 383.662708,2895.88365 383.748513,2905.26041 C383.791416,2909.95079 383.830415,2914.47697 383.861616,2917.82312 C383.877221,2919.44522 383.888923,2920.79375 383.89672,2921.75134 L372.983873,2921.80996 C372.999468,2919.70317 373.022871,2915.70071 373.022871,2910.90827 C373.022871,2901.848 372.937066,2889.98942 372.539261,2882.66091 C372.496359,2881.83619 371.833341,2881.18731 371.010464,2881.15609 C368.861542,2881.08182 365.288957,2881.06619 363.229694,2881.06619 L363.186791,2873.77261 C363.635306,2873.77653 364.154021,2873.78043 364.700013,2873.78043 C366.252273,2873.78043 368.030678,2873.7648 369.286604,2873.69053 C370.10953,2873.64362 370.760887,2872.97134 370.780356,2872.14658 C370.866161,2868.80073 371.057261,2865.40024 371.942629,2862.51177 C372.383346,2861.06558 372.99178,2859.74837 373.834156,2858.59136 C374.676532,2857.43435 375.745252,2856.42983 377.176603,2855.59342 C380.183576,2853.83844 383.440158,2853.18964 386.661694,2853.18964 C390.327832,2853.18573 393.911999,2854.04955 396.813738,2855.03457 C396.790335,2855.53097 396.716241,2856.14465 396.599235,2856.80906 C396.384732,2858.03642 396.037618,2859.43568 395.68661,2860.71766 C395.526701,2861.30396 395.362898,2861.86287 395.210797,2862.37488 C393.33874,2861.76904 391.669464,2861.44072 390.152348,2861.43681 C388.861377,2861.43289 387.660165,2861.67523 386.611014,2862.22245 L386.611084,2862.22241 Z" id="icon-facebook"></path>
        </g>
    </g>
</svg>