<?xml version="1.0" encoding="UTF-8"?>
<svg width="61px" height="68px" viewBox="0 0 61 68" version="1.1" xmlns="http://www.w3.org/2000/svg" xmlns:xlink="http://www.w3.org/1999/xlink">
    <!-- Generator: sketchtool 49.2 (51160) - http://www.bohemiancoding.com/sketch -->
    <title>1F529309-AE4B-457B-9FB4-D8F6EB41F7D4</title>
    <desc>Created with sketchtool.</desc>
    <defs></defs>
    <g id="Page-1" stroke="none" stroke-width="1" fill="none" fill-rule="evenodd">
        <g id="Voice" transform="translate(-668.000000, -2851.000000)" fill="#307FE2">
            <path d="M716.856958,2894.87421 C713.176235,2894.87421 709.993015,2896.47091 707.80082,2899.06057 L690.885734,2890.28668 C691.682514,2888.68998 692.078944,2886.89868 692.078944,2885.00209 C692.078944,2883.1095 691.581441,2881.31421 690.885734,2879.7175 L707.80082,2870.94362 C709.989035,2873.53726 713.273348,2875.12998 716.856958,2875.12998 C723.425584,2875.12998 728.898509,2869.74809 728.898509,2863.06499 C728.898509,2856.48358 723.527074,2851 716.856958,2851 C710.18734,2851.00779 704.815407,2856.68955 704.815407,2863.27136 C704.815407,2864.86806 705.114684,2866.26218 705.612187,2867.6563 L688.397604,2876.52749 C686.209389,2874.33502 683.224374,2873.03819 679.940061,2873.03819 C673.472528,2873.03819 668,2878.52137 668,2885.10318 C668,2891.68499 673.371435,2897.16817 680.041551,2897.16817 C683.325864,2897.16817 686.310879,2895.87135 688.499095,2893.67888 L705.713677,2902.55006 C705.216175,2903.94419 704.916897,2905.3423 704.916897,2906.93501 C704.916897,2913.51642 710.288333,2919 716.958449,2919 C723.624187,2919 729,2913.61811 729,2906.93501 C728.99611,2900.2563 723.422499,2894.87401 716.857953,2894.87401 L716.856958,2894.87421 Z M716.856958,2855.29662 C721.233388,2855.29662 724.918091,2858.8872 724.918091,2863.37344 C724.918091,2867.75839 721.334481,2871.45027 716.856958,2871.45027 C712.379435,2871.44637 708.795825,2867.75849 708.795825,2863.27225 C708.795825,2858.88342 712.379435,2855.29672 716.856958,2855.29672 L716.856958,2855.29662 Z M680.04177,2893.18041 C675.66534,2893.18041 671.980637,2889.58982 671.980637,2885.10358 C671.980637,2880.71863 675.564247,2877.02676 680.04177,2877.02676 C684.418201,2877.02676 688.102903,2880.61734 688.102903,2885.10358 C688.099013,2889.48853 684.4183,2893.18041 680.04177,2893.18041 Z M716.856958,2914.91074 C712.480528,2914.91074 708.795825,2911.32016 708.795825,2906.83392 C708.795825,2902.34768 712.379435,2898.7571 716.856958,2898.7571 C721.334481,2898.7571 724.918091,2902.34768 724.918091,2906.83392 C724.914201,2911.32405 721.233488,2914.91074 716.856958,2914.91074 Z" id="icon-linkedin"></path>
        </g>
    </g>
</svg>