<?xml version="1.0" encoding="UTF-8"?>
<svg width="71px" height="63px" viewBox="0 0 71 63" version="1.1" xmlns="http://www.w3.org/2000/svg" xmlns:xlink="http://www.w3.org/1999/xlink">
    <!-- Generator: sketchtool 49.2 (51160) - http://www.bohemiancoding.com/sketch -->
    <title>A99FAE9D-F30A-4705-88BE-7BDE31E23A87</title>
    <desc>Created with sketchtool.</desc>
    <defs></defs>
    <g id="Page-1" stroke="none" stroke-width="1" fill="none" fill-rule="evenodd">
        <g id="Voice" transform="translate(-511.000000, -2853.000000)" fill="#307FE2">
            <path d="M561.434766,2856.34087 C565.542308,2856.34087 569.241498,2858.06733 571.844614,2860.83113 C574.004393,2860.88594 574.232193,2860.90552 575.272876,2860.90552 C575.901187,2860.90552 576.824049,2860.89769 578.634387,2860.88594 C577.483825,2864.9142 577.177511,2865.7403 575.700932,2870.36746 C575.728416,2870.97816 575.744119,2871.58891 575.744119,2872.20736 C575.744119,2890.9942 561.398536,2912.6623 535.163308,2912.6623 C522.601121,2912.6623 515.55198,2906.47305 516.703045,2906.47305 C523.38666,2906.47305 529.536663,2904.20251 534.417378,2900.38952 C528.177501,2900.27208 505.455786,2885.88499 518.140619,2858.94743 C525.177696,2867.54813 535.686062,2873.20843 547.541526,2873.79972 C547.294133,2872.75835 547.172391,2871.67791 547.172391,2870.55827 C547.172391,2862.7053 553.557634,2856.33936 561.435541,2856.33936 L561.434766,2856.34087 Z M578.639183,2860.88835 L578.643113,2860.88835 L578.639183,2860.88835 Z M561.43545,2853.0001 C551.889052,2853.0001 544.094082,2860.61044 543.830695,2870.06019 C534.830173,2868.65092 526.56774,2863.95712 520.744056,2856.83243 C520.103964,2856.04948 519.145836,2855.60316 518.14838,2855.60316 C518.010936,2855.60316 517.873492,2855.61099 517.739978,2855.62665 C516.597258,2855.76758 515.603723,2856.48398 515.116757,2857.52137 C508.001167,2872.62821 511.425408,2883.67623 515.552644,2890.28359 C518.533148,2895.05567 522.711462,2898.80211 526.681278,2901.11213 C523.567171,2902.43922 520.197919,2903.12822 516.710746,2903.12822 C514.794449,2903.12822 513.239356,2904.66676 513.239356,2906.55757 C513.239356,2909.84592 518.426888,2912.17138 520.131167,2912.93864 C523.241354,2914.33618 528.377716,2916 535.175432,2916 C551.692456,2916 562.043996,2908.21748 567.81641,2901.68789 C574.990911,2893.57254 579.105892,2882.82688 579.105892,2872.20579 C579.105892,2871.74777 579.09804,2871.28582 579.082337,2870.82389 C579.329731,2870.0566 579.537858,2869.4028 579.726351,2868.81953 C580.554936,2866.23581 580.943664,2865.03791 581.82722,2861.94519 C581.937169,2861.61243 582,2861.25619 582,2860.88819 C582,2859.04438 580.503817,2857.54893 578.654272,2857.54893 L578.646411,2857.54893 L578.622857,2857.54893 L577.535126,2857.55285 C576.419849,2857.56067 575.756253,2857.56458 575.273208,2857.56458 C574.6017,2857.56458 574.287545,2857.55676 573.513939,2857.53327 L573.246912,2857.52544 C570.026846,2854.63636 565.797462,2853 561.434676,2853 L561.43545,2853.0001 Z" id="icon-twitter"></path>
        </g>
    </g>
</svg>