<?xml version="1.0" encoding="UTF-8"?>
<svg width="103px" height="75px" viewBox="0 0 103 75" version="1.1" xmlns="http://www.w3.org/2000/svg" xmlns:xlink="http://www.w3.org/1999/xlink">
    <!-- Generator: sketchtool 49.2 (51160) - http://www.bohemiancoding.com/sketch -->
    <title>AADC0E1A-55BE-4F60-91E7-371A2E5839D9</title>
    <desc>Created with sketchtool.</desc>
    <defs></defs>
    <g id="Page-1" stroke="none" stroke-width="1" fill="none" fill-rule="evenodd">
        <g id="Voice" transform="translate(-666.000000, -2664.000000)" fill="#307FE2">
            <g id="icon-website" transform="translate(666.000000, 2664.000000)">
                <polygon id="Fill-1" points="23 37 81 37 81 34 23 34"></polygon>
                <polygon id="Fill-2" points="34 44 69 44 69 41 34 41"></polygon>
                <path d="M96.1699779,74.999875 L6.82512456,74.999875 C3.06173529,74.999875 0,71.9530051 0,68.2030113 L0,6.79686367 C0,3.04686992 3.06173529,0 6.82512456,0 L96.1699779,0 C99.938266,0 103,3.04686992 103,6.79686367 L103,68.2080113 C103,71.9531301 99.938266,75 96.1699779,75 L96.1699779,74.999875 Z M6.82512456,2.49999583 C4.44545066,2.49999583 2.51219328,4.42386763 2.51219328,6.79686367 L2.51219328,68.2080113 C2.51219328,70.5761324 4.44545066,72.5000042 6.82512456,72.5000042 L96.1699779,72.5000042 C98.5545506,72.5000042 100.487808,70.5761324 100.487808,68.2031363 L100.487808,6.79698867 C100.487808,4.42399263 98.5545506,2.50012083 96.1699779,2.50012083 L6.82512456,2.49999583 Z" id="Fill-3"></path>
                <path d="M51.4975209,19 C48.4632179,19 46,16.5318239 46,13.5024791 C46,10.4681761 48.4681761,8 51.4975209,8 C54.5318239,8 57,10.4681761 57,13.5024791 C57,16.5367821 54.5318239,19 51.4975209,19 Z M51.4975209,10.5426765 C49.8686823,10.5426765 48.5426765,11.8686823 48.5426765,13.5024791 C48.5426765,15.1313177 49.8686823,16.4573235 51.4975209,16.4573235 C53.1263595,16.4573235 54.4573235,15.1313177 54.4573235,13.5024791 C54.4573235,11.8685552 53.1313177,10.5426765 51.4975209,10.5426765 Z" id="Fill-4"></path>
                <path d="M51.4975209,19 C48.4632179,19 46,16.5318239 46,13.5024791 C46,10.4681761 48.4681761,8 51.4975209,8 C54.5318239,8 57,10.4681761 57,13.5024791 C57,16.5367821 54.5318239,19 51.4975209,19 Z M51.4975209,10.5426765 C49.8686823,10.5426765 48.5426765,11.8686823 48.5426765,13.5024791 C48.5426765,15.1313177 49.8686823,16.4573235 51.4975209,16.4573235 C53.1263595,16.4573235 54.4573235,15.1313177 54.4573235,13.5024791 C54.4523526,11.8685552 53.1263595,10.5426765 51.4975209,10.5426765 Z" id="Fill-5"></path>
                <path d="M51.5024754,19 C48.4681744,19 46,16.5318239 46,13.5024791 C46,10.4681761 48.4681744,8 51.5024754,8 C54.5367763,8 56.9999925,10.4681761 56.9999925,13.5024791 C57.0049634,16.5367821 54.5367763,19 51.5024754,19 Z M51.5024754,10.5426765 C49.8736379,10.5426765 48.5426748,11.8686823 48.5426748,13.5024791 C48.5426748,15.1313177 49.8686797,16.4573235 51.5024754,16.4573235 C53.1313128,16.4573235 54.4573177,15.1313177 54.4573177,13.5024791 C54.4622887,11.8685552 53.136271,10.5426765 51.5024754,10.5426765 Z" id="Fill-6"></path>
            </g>
        </g>
    </g>
</svg>