<?xml version="1.0" encoding="UTF-8"?>
<svg width="92px" height="86px" viewBox="0 0 92 86" version="1.1" xmlns="http://www.w3.org/2000/svg" xmlns:xlink="http://www.w3.org/1999/xlink">
    <!-- Generator: sketchtool 49.2 (51160) - http://www.bohemiancoding.com/sketch -->
    <title>E7249862-6D51-472E-94FD-189D7BA43923</title>
    <desc>Created with sketchtool.</desc>
    <defs></defs>
    <g id="Page-1" stroke="none" stroke-width="1" fill="none" fill-rule="evenodd">
        <g id="Home" transform="translate(-334.000000, -659.000000)" fill="#307FE2">
            <path d="M340.453794,667.679903 C340.453794,666.988493 340.867854,666.367403 341.508494,666.101803 C342.145214,665.836183 342.883494,665.984613 343.371794,666.472893 C343.860074,666.961173 344.004604,667.695593 343.742884,668.336193 C343.477254,668.972913 342.852254,669.390893 342.160884,669.390893 C341.219474,669.390893 340.453884,668.625273 340.453884,667.679993 L340.453794,667.679903 Z M347.453794,669.390803 C348.145204,669.390803 348.766294,668.972833 349.031894,668.336103 C349.297514,667.695483 349.149084,666.961103 348.660804,666.472803 C348.172524,665.984523 347.438104,665.836083 346.797504,666.101713 C346.156904,666.367343 345.742804,666.988433 345.742804,667.679813 C345.742804,668.148563 345.934214,668.597783 346.270144,668.918113 C346.609984,669.242333 347.063114,669.414203 347.531844,669.390773 L347.453794,669.390803 Z M352.793594,669.390803 C353.485004,669.390803 354.106094,668.972833 354.371694,668.336103 C354.637314,667.695483 354.488884,666.961103 354.000604,666.472803 C353.512324,665.984503 352.777904,665.836083 352.137304,666.101713 C351.496704,666.367343 351.082604,666.988433 351.082604,667.679813 C351.082604,668.144653 351.270104,668.586063 351.602134,668.906413 C351.930264,669.230633 352.379474,669.406413 352.840434,669.390793 L352.793594,669.390803 Z M425.203594,664.500203 L425.203594,740.199203 C425.195784,742.8476 423.051294,744.9961 420.402794,745 L338.8008,745 C336.1524,744.996093 334.0078,742.8477 334,740.199203 L334,664.492203 C334,661.839903 336.1484,659.687503 338.8008,659.679703 L420.452804,659.679703 C423.105104,659.687513 425.249704,661.839903 425.249704,664.492203 L425.203594,664.500203 Z M335.941596,664.500203 L335.941596,673.679903 L423.250594,673.679903 L423.250594,664.492403 C423.250594,662.941603 422.000594,661.687703 420.453694,661.679903 L338.801694,661.679903 C337.250894,661.679903 335.993094,662.937703 335.993094,664.492403 L335.941596,664.500203 Z M423.250594,740.199203 L423.250594,675.679203 L335.992591,675.679203 L335.992591,740.199203 C335.996497,741.7461 337.246491,742.9961 338.793391,743 L420.453394,743 C421.996394,742.996093 423.246394,741.7461 423.250294,740.199203 L423.250594,740.199203 Z M403.359594,687.640203 C404.179904,688.444893 404.644794,689.546403 404.644794,690.694903 C404.644794,691.843303 404.179954,692.944903 403.359594,693.749603 L376.281594,720.491603 L376.281594,720.640043 C376.621434,722.886143 375.879254,725.163443 374.281594,726.780643 C371.679994,729.007243 368.367494,730.229843 364.941794,730.229843 L364.742574,730.229843 C361.285574,730.108753 358.004274,728.679043 355.562874,726.229843 C355.426154,726.104843 355.375374,725.913433 355.422254,725.737653 C355.469134,725.557963 355.613664,725.421243 355.793344,725.378273 C357.664444,725.011083 359.242544,723.749373 360.012144,721.999373 C362.012144,715.440773 366.883244,714.577473 369.641044,714.639973 L369.769954,714.639973 L397.140954,687.639973 C398.867554,685.940773 401.637054,685.940773 403.359754,687.639973 L403.359594,687.640203 Z M359.171594,726.370203 L359.530974,726.620203 C360.847374,727.581143 362.448974,728.073303 364.081774,728.018603 C367.159874,727.928753 370.136474,726.878003 372.589574,725.018603 C373.741874,724.042043 374.370774,722.585003 374.292674,721.081103 C374.261424,720.374073 374.054394,719.686603 373.691114,719.081103 L371.409914,716.842803 L371.308354,716.842803 L371.312264,716.838893 C367.163864,716.381863 363.257564,718.881893 361.941164,722.838893 C361.370854,724.084993 360.550564,725.202193 359.530964,726.120093 L359.171594,726.370203 Z M375.671594,717.600703 L379.452794,713.870203 L376.780894,711.229603 L372.999694,714.960103 L375.671594,717.600703 Z M401.589594,692.018703 C401.941154,691.671043 402.140374,691.194483 402.140374,690.698403 C402.140374,690.206213 401.941154,689.729653 401.589594,689.378103 C400.847404,688.655443 399.663794,688.655443 398.921594,689.378103 L378.530594,709.499103 L381.202494,712.139703 L401.589594,692.018703 Z" id="icon-Designer-Starter-Kit-Logo"></path>
        </g>
    </g>
</svg>