<?xml version="1.0" encoding="UTF-8" standalone="no"?>
<svg width="73px" height="73px" viewBox="0 0 73 73" version="1.1" xmlns="http://www.w3.org/2000/svg" xmlns:xlink="http://www.w3.org/1999/xlink">
    <!-- Generator: Sketch 41 (35326) - http://www.bohemiancoding.com/sketch -->
    <title>icon_audience</title>
    <desc>Created with Sketch.</desc>
    <defs>
        <polygon id="path-1" points="72.3198174 71.8685 72.3198174 0.20075 36.488389 0.20075 0.6569605 0.20075 0.6569605 71.8685 36.488389 71.8685"></polygon>
    </defs>
    <g id="UI-Library_02" stroke="none" stroke-width="1" fill="none" fill-rule="evenodd">
        <g id="Icons" transform="translate(-742.000000, -744.000000)">
            <g id="icon_audience" transform="translate(742.000000, 744.000000)">
                <g id="Group-19" transform="translate(0.004794, 0.200750)">
                    <mask id="mask-2" fill="white">
                        <use xlink:href="#path-1"></use>
                    </mask>
                    <g id="Clip-18"></g>
                    <path d="M36.4922048,0.20075 C16.7336801,0.20075 0.6569605,16.276664 0.6569605,36.034625 C0.6569605,55.792586 16.7336801,71.8685 36.4922048,71.8685 C56.2470068,71.8685 72.3200036,55.792586 72.3200036,36.034625 C72.3200036,16.276664 56.2470068,0.20075 36.4922048,0.20075" id="Fill-17" fill="#267EE3" mask="url(#mask-2)"></path>
                </g>
                <path d="M29.0442289,37.166125 C29.0442289,34.597255 31.1289719,32.512375 33.6976732,32.512375 C36.2663745,32.512375 38.3511176,34.597255 38.3511176,37.166125 C38.3511176,39.734995 36.2663745,41.819875 33.6976732,41.819875 C31.1289719,41.819875 29.0442289,39.734995 29.0442289,37.166125 M51.3807618,30.650875 C51.3807618,32.996365 50.6734382,35.58385 49.3890876,37.910725 C47.6952339,40.9822 45.7035597,42.527245 44.084161,43.77445 C42.5764451,44.92858 41.4949846,45.766255 40.9012051,47.590525 C39.7843785,50.978455 38.3511176,52.877185 35.8196439,54.19885 C34.8703412,54.626995 33.8261083,54.850375 32.7669844,54.850375 C28.6533396,54.850375 25.3214734,51.51829 25.3214734,47.404375 L29.0442289,47.404375 C29.0442289,49.452025 30.7176075,51.127375 32.7669844,51.127375 C33.3067839,51.127375 33.8093559,51.015685 34.1816314,50.84815 C35.5032096,50.159395 36.4338985,49.21003 37.3645874,46.41778 C38.3120287,43.51384 40.0989513,42.154945 41.8132802,40.83328 C43.2819072,39.697765 44.8100984,38.52502 46.1316766,36.123685 C47.1182068,34.336645 47.6580063,32.38207 47.6580063,30.650875 C47.6580063,25.438675 43.5629753,21.343375 38.3511176,21.343375 C33.1392599,21.343375 29.0442289,25.438675 29.0442289,30.650875 L25.3214734,30.650875 C25.3214734,23.33518 31.0340417,17.620375 38.3511176,17.620375 C45.6663321,17.620375 51.3807618,23.33518 51.3807618,30.650875" id="Fill-20" fill="#FFFFFF"></path>
            </g>
        </g>
    </g>
</svg>