<?xml version="1.0" encoding="UTF-8" standalone="no"?>
<svg width="72px" height="73px" viewBox="0 0 72 73" version="1.1" xmlns="http://www.w3.org/2000/svg" xmlns:xlink="http://www.w3.org/1999/xlink">
    <!-- Generator: Sketch 41 (35326) - http://www.bohemiancoding.com/sketch -->
    <title>icon_claim</title>
    <desc>Created with Sketch.</desc>
    <defs></defs>
    <g id="UI-Library_02" stroke="none" stroke-width="1" fill="none" fill-rule="evenodd">
        <g id="Icons" transform="translate(-267.000000, -744.000000)">
            <g id="icon_claim" transform="translate(267.000000, 744.000000)">
                <path d="M0,36.235375 C0,16.477414 16.0748582,0.4015 35.8333829,0.4015 C55.5900463,0.4015 71.6630431,16.477414 71.6630431,36.235375 C71.6630431,55.993336 55.5900463,72.06925 35.8333829,72.06925 C16.0748582,72.06925 0,55.993336 0,36.235375 Z" id="Fill-1" fill="#E01C1B"></path>
                <path d="M50.7225435,43.681375 L24.6632551,43.681375 L20.9404996,47.404375 L20.9404996,21.343375 L50.7225435,21.343375 L50.7225435,43.681375 Z M50.7225435,17.620375 L20.9404996,17.620375 C18.8911227,17.620375 17.2177441,19.295725 17.2177441,21.343375 L17.2177441,54.850375 L24.6632551,47.404375 L50.7225435,47.404375 C52.770059,47.404375 54.445299,45.729025 54.445299,43.681375 L54.445299,21.343375 C54.445299,19.295725 52.770059,17.620375 50.7225435,17.620375 L50.7225435,17.620375 Z" id="Fill-3" fill="#FFFFFF"></path>
            </g>
        </g>
    </g>
</svg>