<?xml version="1.0" encoding="UTF-8" standalone="no"?>
<svg width="30px" height="29px" viewBox="0 0 30 29" version="1.1" xmlns="http://www.w3.org/2000/svg" xmlns:xlink="http://www.w3.org/1999/xlink">
    <!-- Generator: Sketch 41 (35326) - http://www.bohemiancoding.com/sketch -->
    <title>Group 18</title>
    <desc>Created with Sketch.</desc>
    <defs></defs>
    <g id="UI-Library_02" stroke="none" stroke-width="1" fill="none" fill-rule="evenodd">
        <g id="Icons" transform="translate(-404.000000, -494.000000)" fill="#AAB3BA">
            <g id="icon_science" transform="translate(383.000000, 472.000000)">
                <g id="Group-18" transform="translate(21.224839, 21.897959)">
                    <path d="M12.6619848,15.8107626 L12.6619848,3.16598616 L17.057378,3.16598616 L17.057378,15.8107626 L20.9722082,19.6361332 L8.74715453,19.6361332 L12.6619848,15.8107626 Z M28.7784265,23.2166 L19.9876401,14.6234798 L19.9876401,3.16598616 L22.9179023,3.16598616 L22.9179023,0.301612754 L6.80146047,0.301612754 L6.80146047,3.16598616 L9.73172261,3.16598616 L9.73172261,14.6234798 L0.940936182,23.2166 C0.480885026,23.815254 0.208370646,24.5585589 0.208370646,25.3648801 C0.208370646,27.3427299 1.84785232,28.9453468 3.87119833,28.9453468 L25.8481644,28.9453468 C27.8715104,28.9453468 29.5109921,27.3427299 29.5109921,25.3648801 C29.5109921,24.5585589 29.2370126,23.815254 28.7784265,23.2166 L28.7784265,23.2166 Z" id="Fill-13"></path>
                </g>
            </g>
        </g>
    </g>
</svg>