<?xml version="1.0" encoding="UTF-8" standalone="no"?>
<svg width="31px" height="35px" viewBox="0 0 31 35" version="1.1" xmlns="http://www.w3.org/2000/svg" xmlns:xlink="http://www.w3.org/1999/xlink">
    <!-- Generator: Sketch 41 (35326) - http://www.bohemiancoding.com/sketch -->
    <title>Group 21</title>
    <desc>Created with Sketch.</desc>
    <defs>
        <polygon id="path-1" points="30.8490635 0.0203519935 0.390675192 0.0203519935 0.390675192 29.7977898 30.8490635 29.7977898 30.8490635 0.0203519935"></polygon>
    </defs>
    <g id="UI-Library_02" stroke="none" stroke-width="1" fill="none" fill-rule="evenodd">
        <g id="Icons" transform="translate(-165.000000, -491.000000)">
            <g id="icon_social-studies" transform="translate(142.000000, 472.000000)">
                <g id="Group-21" transform="translate(22.740899, 19.632653)">
                    <g id="Group-16">
                        <polygon id="Fill-7" fill="#AAB3BA" points="5.57385086 33.6081629 20.4453846 33.6081629 20.4453846 30.6978279 5.57385086 30.6978279"></polygon>
                        <path d="M4.20150572,11.192768 L8.54399359,15.4361587 L8.54399359,16.8593445 C8.54399359,18.0702881 9.54038635,19.0500912 10.7747237,19.0675358 L10.7747237,20.9602712 C6.93489363,19.9862829 4.08699491,16.5802314 4.08699491,12.5258236 C4.08699491,12.0708112 4.13309667,11.6288821 4.20150572,11.192768 M21.9328355,12.5258236 C21.9328355,15.1744902 20.7148568,17.5469511 18.8008904,19.14749 C18.3562316,18.2447338 17.4193249,17.6167294 16.3232929,17.6167294 L15.9797605,17.6167294 L15.9797605,15.0887211 C15.9797605,14.4781612 15.4726412,13.9824448 14.8480368,13.9824448 L10.0564286,13.9824448 L10.0564286,11.0750172 L11.5956323,11.0750172 C12.3734135,11.0750172 13.0054537,10.4397442 13.0054537,9.6576462 L13.0054537,8.17921925 L13.9245145,8.17921925 C15.4696669,8.17921925 16.7233372,6.95519221 16.7233372,5.44332983 L16.7233372,4.60453695 C19.7913346,5.98556509 21.9328355,9.01219727 21.9328355,12.5258236 M13.0099152,24.1555342 C19.5697487,24.1555342 24.9071422,18.9381553 24.9071422,12.5258236 C24.9071422,6.1134919 19.5697487,0.896112988 13.0099152,0.896112988 C6.45008163,0.896112988 1.11268816,6.1134919 1.11268816,12.5258236 C1.11268816,18.9381553 6.45008163,24.1555342 13.0099152,24.1555342" id="Fill-8" fill="#AAB3BA"></path>
                        <g id="Group-12" transform="translate(0.000000, 0.172745)">
                            <mask id="mask-2" fill="white">
                                <use xlink:href="#path-1"></use>
                            </mask>
                            <g id="Clip-11"></g>
                            <path d="M23.5114488,2.07546723 C26.2061707,4.70814296 27.8747568,8.34388123 27.8747568,12.353224 C27.8747568,20.369002 21.2033867,26.8903622 13.003223,26.8903622 C8.90462828,26.8903622 5.18674484,25.2592953 2.49202292,22.6266196 L0.390675192,24.6821709 C3.62225948,27.841091 8.08371962,29.7977898 13.003223,29.7977898 C22.845204,29.7977898 30.8490635,21.9724483 30.8490635,12.353224 C30.8490635,7.5414312 28.8473551,3.17883602 25.6127965,0.0199158794 L23.5114488,2.07546723 Z" id="Fill-10" fill="#AAB3BA" mask="url(#mask-2)"></path>
                        </g>
                    </g>
                </g>
            </g>
        </g>
    </g>
</svg>