<?xml version="1.0" encoding="utf-8"?>
<!-- Generator: Adobe Illustrator 21.0.2, SVG Export Plug-In . SVG Version: 6.00 Build 0)  -->
<svg version="1.1" id="Layer_1" xmlns="http://www.w3.org/2000/svg" xmlns:xlink="http://www.w3.org/1999/xlink" x="0px" y="0px"
	 viewBox="0 0 31 35" style="enable-background:new 0 0 31 35;" xml:space="preserve">
<style type="text/css">
	.st0{fill:#FFFFFF;}
	.st1{filter:url(#Adobe_OpacityMaskFilter);}
	.st2{mask:url(#mask-2);fill:#FFFFFF;}
</style>
<title>Group 21</title>
<desc>Created with Sketch.</desc>
<g id="UI-Library_02">
	<g id="Icons" transform="translate(-165.000000, -491.000000)">
		<g id="icon_social-studies" transform="translate(142.000000, 472.000000)">
			<g id="Group-21" transform="translate(22.740899, 19.632653)">
				<g id="Group-16">
					<polygon id="Fill-7" class="st0" points="5.6,33.6 20.4,33.6 20.4,30.7 5.6,30.7 					"/>
					<path id="Fill-8" class="st0" d="M4.2,11.2l4.3,4.2v1.4c0,1.2,1,2.2,2.2,2.2V21c-3.8-1-6.7-4.4-6.7-8.4
						C4.1,12.1,4.1,11.6,4.2,11.2 M21.9,12.5c0,2.6-1.2,5-3.1,6.6c-0.4-0.9-1.4-1.5-2.5-1.5H16v-2.5c0-0.6-0.5-1.1-1.1-1.1h-4.8
						v-2.9h1.5c0.8,0,1.4-0.6,1.4-1.4V8.2h0.9c1.5,0,2.8-1.2,2.8-2.7V4.6C19.8,6,21.9,9,21.9,12.5 M13,24.2
						c6.6,0,11.9-5.2,11.9-11.6S19.6,0.9,13,0.9S1.1,6.1,1.1,12.5S6.5,24.2,13,24.2"/>
					<g id="Group-12" transform="translate(0.000000, 0.172745)">
						<g id="Clip-11">
						</g>
						<defs>
							<filter id="Adobe_OpacityMaskFilter" filterUnits="userSpaceOnUse" x="0.4" y="0" width="30.5" height="29.8">
								<feColorMatrix  type="matrix" values="1 0 0 0 0  0 1 0 0 0  0 0 1 0 0  0 0 0 1 0"/>
							</filter>
						</defs>
						<mask maskUnits="userSpaceOnUse" x="0.4" y="0" width="30.5" height="29.8" id="mask-2">
							<g class="st1">
								<polygon id="path-1" class="st0" points="30.8,0 0.4,0 0.4,29.8 30.8,29.8 								"/>
							</g>
						</mask>
						<path id="Fill-10" class="st2" d="M23.5,2.1c2.7,2.6,4.4,6.3,4.4,10.3c0,8-6.7,14.5-14.9,14.5c-4.1,0-7.8-1.6-10.5-4.3
							l-2.1,2.1c3.2,3.2,7.7,5.1,12.6,5.1c9.8,0,17.8-7.8,17.8-17.4c0-4.8-2-9.2-5.2-12.3L23.5,2.1z"/>
					</g>
				</g>
			</g>
		</g>
	</g>
</g>
</svg>
