<svg id="Logo" xmlns="http://www.w3.org/2000/svg" viewBox="0 0 2324.98 1103.74"><defs><style>.cls-1{fill:#5c6670;}.cls-2{fill:#ffb700;}.cls-3{fill:#3fae2a;}.cls-4{fill:#e2231a;}.cls-5{fill:#ff6b00;}.cls-6{fill:#2f7de1;}</style></defs><title>TC-Logo-Primary-RGB</title><path class="cls-1" d="M925.48,330.57V527.51H871.17V330.57H795.94V280.5h204.77v50.07H925.48Z"/><path class="cls-1" d="M1154.64,527.51V422c0-25.68-11.94-38.51-32.48-38.51s-33.51,12.84-33.51,38.51V527.51H1035V269.85h53.66v95.26a66.89,66.89,0,0,1,55.46-30.3c40.57,0,64.19,26.83,64.19,70.22V527.51h-53.66Z"/><path class="cls-1" d="M1254.13,317.48V269.85h56.49v47.63h-56.49Zm1.41,210V338.4h53.92V527.64h-53.92v-0.13Z"/><path class="cls-1" d="M1482.91,527.51V422c0-25.68-11.94-38.51-32.48-38.51s-33.51,12.84-33.51,38.51V527.51h-53.66V338.4h53.66v26.83a67,67,0,0,1,55.46-30.3c40.57,0,64.19,26.83,64.19,70.22V527.64h-53.66v-0.13Z"/><path class="cls-1" d="M1701.54,527.51l-49.43-77-18.74,19.77v57.52h-54.31V269.85h53.66V407.22l62.78-68.81h64.19l-72,74.46,74.46,114.77h-60.6v-0.13Z"/><path class="cls-1" d="M934.33,830.81A124.79,124.79,0,0,1,807.61,708q0-2.14,0-4.27v-0.64A125.56,125.56,0,0,1,930.28,574.69q2.86-.06,5.71,0a127.48,127.48,0,0,1,97.44,38.51L998.9,653.13a91.15,91.15,0,0,0-63.16-27.86A73.18,73.18,0,0,0,864,699.87q0,1.21.09,2.43v0.77c0,42.37,29.27,77,71.64,77a89.87,89.87,0,0,0,65.35-28.24l34.53,34.92A126.33,126.33,0,0,1,934.33,830.81Z"/><path class="cls-1" d="M1072.08,826.57v-247h186.41V628H1126.13V678h116.44v48.14H1126.13v51.35h134.16v48.4H1072.08v0.64Z"/><path class="cls-1" d="M1460.44,826.57l-53-79.08h-42.75v79.08h-54.31v-247h113c58.29,0,93.21,30.68,93.21,81.52V662a77,77,0,0,1-52.89,77l60.34,88.2h-63.55v-0.64Zm1-162.79c0-23.24-16.18-35.31-42.75-35.31h-54v71h55.08c26.45,0,41.6-14.12,41.6-34.92v-0.77h0.13Z"/><path class="cls-1" d="M1671.11,830.81A124.79,124.79,0,0,1,1544.39,708q0-2.14,0-4.27v-0.64a125.56,125.56,0,0,1,122.67-128.38q2.86-.06,5.71,0a127.48,127.48,0,0,1,97.44,38.51l-34.92,40.06a91.15,91.15,0,0,0-63.16-27.86,73.18,73.18,0,0,0-71.73,74.6q0,1.21.09,2.43v0.77c0,42.37,29.27,77,71.64,77a89.87,89.87,0,0,0,65-28.89l34.53,34.92A126.33,126.33,0,0,1,1671.11,830.81Z"/><path class="cls-1" d="M1988.86,826.57l-22.47-55.33h-104.5l-22.6,55.46h-55.46l105.53-248.93h50.07l105.92,248.8h-56.49ZM1914,643l-32.87,80.11h65.6Z"/><path class="cls-1" d="M2030.58,626h-9v-39.8H2006.7v-8.47h38.51v8.47h-14.64V626Zm50.07-11.17h-0.9l-14.89-23.24V626h-8.6v-48.4h9.89l14.64,23,14.64-23H2105V626h-9V591.64Z"/><path class="cls-2" d="M488.85,301.11c-46.71,0-85,37.76-85,84.47a84.72,84.72,0,1,0,169.44,0c0.5-46.21-37.76-84.47-84.47-84.47"/><path class="cls-3" d="M594.69,627.07a84.4,84.4,0,0,0-84.47,84.47c0,46.71,37.76,85,84.47,85a84.51,84.51,0,0,0,84.47-85c0.5-46.71-37.76-84.47-84.47-84.47"/><path class="cls-4" d="M317.92,425.83a84.4,84.4,0,0,0-84.47,84.47c0,46.71,37.76,85,84.47,85a84.72,84.72,0,0,0,0-169.44"/><path class="cls-5" d="M660.28,425.83a84.4,84.4,0,0,0-84.47,84.47c0,46.71,37.76,85,84.47,85a84.72,84.72,0,0,0,0-169.44"/><path class="cls-6" d="M383,627.07a84.4,84.4,0,0,0-84.47,84.47c0,46.71,37.76,85,84.47,85a84.72,84.72,0,0,0,0-169.44"/></svg>