<?xml version="1.0" encoding="utf-8"?>
<!-- Generator: Adobe Illustrator 21.0.2, SVG Export Plug-In . SVG Version: 6.00 Build 0)  -->
<svg version="1.1" id="pentagon_grid" xmlns="http://www.w3.org/2000/svg" xmlns:xlink="http://www.w3.org/1999/xlink" x="0px"
	 y="0px" viewBox="0 0 178.8 152.1" style="enable-background:new 0 0 178.8 152.1;" xml:space="preserve">
<style type="text/css">
	.st0{fill:#5B6770;}
</style>
<title>ThinkCERCA-logo-stacked</title>
<path class="st0" d="M10.1,136.5v15.3H5.9v-15.3H0v-3.9h15.9v3.9H10.1z"/>
<path class="st0" d="M27.9,151.8v-8.2c0-2-0.9-3-2.5-3s-2.6,1-2.6,3v8.2h-4.2v-20.1h4.2v7.4c1-1.5,2.6-2.3,4.3-2.4
	c3.2,0,5,2.1,5,5.5v9.5L27.9,151.8L27.9,151.8z"/>
<path class="st0" d="M35.7,135.5v-3.7h4.4v3.7H35.7z M35.8,151.8v-14.7H40v14.7L35.8,151.8L35.8,151.8z"/>
<path class="st0" d="M53.5,151.8v-8.2c0-2-0.9-3-2.5-3s-2.6,1-2.6,3v8.2h-4.2v-14.7h4.2v2.1c1-1.5,2.6-2.3,4.3-2.4
	c3.2,0,5,2.1,5,5.5v9.5L53.5,151.8L53.5,151.8z"/>
<path class="st0" d="M70.5,151.8l-3.8-6l-1.5,1.5v4.5H61v-20.1h4.2v10.7l4.9-5.4h5l-5.6,5.8l5.8,8.9L70.5,151.8L70.5,151.8z"/>
<path class="st0" d="M87.6,152.1c-5.4,0.1-9.8-4.2-9.9-9.6c0-0.1,0-0.2,0-0.3v-0.1c-0.1-5.4,4.2-9.9,9.6-10c0.1,0,0.3,0,0.4,0
	c2.8-0.1,5.6,1,7.6,3l-2.7,3.1c-1.3-1.3-3.1-2.1-4.9-2.2c-3.1,0.1-5.6,2.7-5.6,5.8c0,0.1,0,0.1,0,0.2v0.1c0,3.3,2.3,6,5.6,6
	c1.9,0,3.8-0.8,5.1-2.2l2.7,2.7C93.5,151,90.6,152.3,87.6,152.1z"/>
<path class="st0" d="M98.3,151.8v-19.2h14.5v3.8h-10.3v3.9h9.1v3.8h-9.1v4H113v3.8L98.3,151.8L98.3,151.8z"/>
<path class="st0" d="M128.6,151.8l-4.1-6.2h-3.3v6.2h-4.2v-19.2h8.8c4.5,0,7.3,2.4,7.3,6.4v0.1c0.1,2.7-1.6,5.2-4.1,6l4.7,6.9
	L128.6,151.8L128.6,151.8z M128.7,139.1c0-1.8-1.3-2.8-3.3-2.8h-4.2v5.5h4.3C127.5,141.9,128.7,140.8,128.7,139.1L128.7,139.1
	L128.7,139.1z"/>
<path class="st0" d="M145,152.1c-5.4,0.1-9.8-4.2-9.9-9.6c0-0.1,0-0.2,0-0.3v-0.1c-0.1-5.4,4.2-9.9,9.6-10c0.1,0,0.3,0,0.4,0
	c2.8-0.1,5.6,1,7.6,3l-2.7,3.1c-1.3-1.3-3.1-2.1-4.9-2.2c-3.1,0.1-5.6,2.7-5.6,5.8c0,0.1,0,0.1,0,0.2v0.1c0,3.3,2.3,6,5.6,6
	c1.9,0,3.8-0.8,5.1-2.2l2.7,2.7C150.9,151,148,152.2,145,152.1z"/>
<path class="st0" d="M169.8,151.8l-1.8-4.3h-8.1l-1.8,4.3h-4.3l8.2-19.4h3.9l8.2,19.4H169.8L169.8,151.8z M163.9,137.5l-2.6,6.2h5.1
	L163.9,137.5z"/>
<path class="st0" d="M173,136.2h-0.7v-3.1h-1.2v-0.7h3v0.7H173V136.2L173,136.2z M176.9,135.3L176.9,135.3l-1.2-1.8v2.7H175v-3.8
	h0.8l1.1,1.8l1.1-1.8h0.8v3.8h-0.7v-2.7L176.9,135.3z"/>
<g>
	<path class="st0" d="M84.9,12.5c-2.5,0-4.5,2-4.5,4.5s2,4.5,4.5,4.5v0c0,0,0,0,0,0c2.5,0,4.4-2,4.4-4.5c0,0,0,0,0,0
		C89.3,14.5,87.3,12.5,84.9,12.5z"/>
	<path class="st0" d="M87.1,0C76.5,0,67.9,8.6,67.9,19.2c0,10.6,8.6,19.2,19.2,19.2c10.6,0,19.2-8.6,19.2-19.2
		C106.3,8.6,97.7,0,87.1,0z M94.3,27.9l-5.7-5.7c-2.3,1.6-5.3,1.6-7.6,0c-2.9-2.1-3.6-6.2-1.5-9.1c2.1-2.9,6.2-3.6,9.1-1.5
		c2.9,2.1,3.6,6.2,1.5,9.1l5.7,5.7L94.3,27.9z"/>
</g>
<g>
	<polygon class="st0" points="107.6,85.4 107.6,92.4 117.5,92.4 118.7,93.5 118.7,85.3 107.7,85.3 	"/>
	<path class="st0" d="M111.1,74c-10.6,0-19.2,8.6-19.2,19.2c0,10.6,8.6,19.2,19.2,19.2s19.2-8.6,19.2-19.2
		C130.4,82.6,121.8,74,111.1,74z M116.6,98.4c0,0.6-0.4,1-1,1h-11l-4,4v-15c0-0.6,0.4-1,1-1v0h2v9h13V98.4z M120.6,98.4l-4-4h-10
		c-0.6,0-1-0.4-1-1v-9c0-0.6,0.4-1,1-1v0h13c0.6,0,1,0.4,1,1V98.4z"/>
</g>
<g>
	<polygon class="st0" points="40.2,53.5 42.2,51.5 56.2,51.5 56.2,51.5 56.2,39.5 40.2,39.5 	"/>
	<path class="st0" d="M48.2,28.2c-10.6,0-19.2,8.6-19.2,19.2c0,10.6,8.6,19.2,19.2,19.2s19.2-8.6,19.2-19.2
		C67.4,36.9,58.8,28.3,48.2,28.2z M58.2,51.5c0,1.1-0.9,2-2,2H42.2l-4,4V39.4c0-1.1,0.9-2,2-2h16.1c0,0,0.1,0,0.1,0
		c1.1,0,2,1,1.9,2.1V51.5z"/>
</g>
<g>
	<path class="st0" d="M126,28.3c-10.6,0-19.2,8.6-19.2,19.2s8.6,19.2,19.2,19.2s19.2-8.6,19.2-19.2C145.2,36.9,136.6,28.3,126,28.3z
		 M135,51.4h-1.4v3.5c0,0.6-0.4,1-1,1h-3v2.5h-10v-7.8c-1.4-1.3-2.2-3-2.5-4.9c-0.6-4.5,2.7-8.7,7.2-9.2c0.3,0,0.7-0.1,1-0.1
		c4.5,0,8.1,3.5,8.3,8v1L136,50c0.1,0.1,0.1,0.3,0.1,0.5C136,51,135.6,51.4,135,51.4z"/>
	<path class="st0" d="M131.6,44.4c-0.1-3.4-2.9-6.1-6.3-6.1c-0.3,0-0.5,0-0.8,0c-2.7,0.4-4.9,2.5-5.4,5.2c-0.3,2,0.3,4.1,1.8,5.5
		l0.6,0.6v6.7h6v-2.5h4v-4.5l0,0h1.8l-1.8-3.5V44.4z M129,45.4h-2.8c-0.4,0-0.7,0.2-0.9,0.6c-0.4,0.9-1.3,1.4-2.3,1.4
		c-1.4,0-2.5-1.1-2.5-2.5c0-0.1,0-0.2,0-0.2c0-2.6,2.1-4.8,4.8-4.8c2.5,0,4.6,2,4.7,4.5C130,44.9,129.6,45.4,129,45.4z"/>
</g>
<path class="st0" d="M63,74c-10.6,0-19.2,8.6-19.2,19.3s8.6,19.2,19.3,19.2s19.2-8.6,19.2-19.3C82.2,82.6,73.6,74,63,74z M70.8,94.1
	c-0.7,1.3-1.7,2.3-2.9,3.2c-0.8,0.5-1.4,1.2-1.7,2.1c-0.4,1.5-1.4,2.8-2.7,3.6c-0.5,0.2-1.1,0.4-1.7,0.4c-2.2,0-4-1.8-4-4h2
	c0,0,0,0,0,0c0,1.1,0.9,2,2,2c0.3,0,0.5,0,0.8-0.2c0.9-0.5,1.5-1.4,1.7-2.4c0.4-1.2,1.3-2.3,2.4-3c1-0.7,1.8-1.5,2.3-2.5
	c0.5-0.9,0.8-1.9,0.8-3c0,0,0,0,0,0c0-2.8-2.2-5-5-5c-2.8,0-5,2.2-5,5h-2c0-3.9,3.1-7,7-7c3.9,0,7,3.1,7,7
	C71.9,91.6,71.5,92.9,70.8,94.1z M59.8,93.8c0-1.4,1.1-2.5,2.5-2.5v0c0,0,0,0,0,0c1.4,0,2.5,1.2,2.5,2.5c0,1.4-1.1,2.5-2.5,2.5
	C61,96.3,59.8,95.1,59.8,93.8z"/>
</svg>
